# xmcd
#
# Track frame offsets:
#	150
#	53776
#	91084
#	147262
#	190425
#	243669
#
# Disc length: 3858 seconds
# Revision: 1
# Processed by: cddbd v1.5.2PL0 Copyright (c) Steve Scherf et al.
# Submitted via: dBpowerAMP V12.0
#
DISCID=500f1006
DTITLE=Lester Levenson - The Way CD 04
DYEAR=1973
DGENRE=Home Study
TTITLE0=Session April 1973 pt 1
TTITLE1=Session April 1973 pt 2
TTITLE2=Session April 1973 pt 3
TTITLE3=Session July 1973 pt 1
TTITLE4=Session July 1973 pt 2
TTITLE5=Session July 1973 pt 3
EXTD=
EXTT0=
EXTT1=
EXTT2=
EXTT3=
EXTT4=
EXTT5=
PLAYORDER=
